<svg width="32" height="32" viewBox="0 0 32 32" fill="none" xmlns="http://www.w3.org/2000/svg">
<g clip-path="url(#clip0_796_166)">
<path fill-rule="evenodd" clip-rule="evenodd" d="M0 16C0 7.16347 7.16347 0 16 0C24.8365 0 32 7.16347 32 16C32 24.8365 24.8365 32 16 32C7.16347 32 0 24.8365 0 16ZM16.0008 7.46667C13.6833 7.46667 13.3924 7.4768 12.4822 7.5182C11.5737 7.5598 10.9537 7.70367 10.4111 7.91467C9.8498 8.1326 9.37373 8.4242 8.8994 8.89867C8.42473 9.373 8.13313 9.84907 7.91447 10.4101C7.70293 10.9529 7.55893 11.5732 7.51807 12.4813C7.47733 13.3915 7.46667 13.6825 7.46667 16.0001C7.46667 18.3176 7.477 18.6076 7.5182 19.5178C7.56 20.4263 7.7038 21.0463 7.91467 21.5889C8.1328 22.1502 8.42433 22.6263 8.89887 23.1006C9.373 23.5753 9.84907 23.8675 10.41 24.0855C10.9529 24.2965 11.5732 24.4403 12.4815 24.4819C13.3917 24.5234 13.6824 24.5335 15.9997 24.5335C18.3175 24.5335 18.6074 24.5234 19.5177 24.4819C20.4261 24.4403 21.0469 24.2965 21.5899 24.0855C22.1509 23.8675 22.6263 23.5753 23.1004 23.1006C23.5751 22.6263 23.8667 22.1502 24.0853 21.5891C24.2951 21.0463 24.4391 20.4261 24.4818 19.518C24.5227 18.6077 24.5333 18.3176 24.5333 16.0001C24.5333 13.6825 24.5227 13.3917 24.4818 12.4815C24.4391 11.573 24.2951 10.9529 24.0853 10.4103C23.8667 9.84907 23.5751 9.373 23.1004 8.89867C22.6257 8.424 22.1511 8.13247 21.5893 7.91467C21.0453 7.70367 20.4249 7.5598 19.5164 7.5182C18.6061 7.4768 18.3164 7.46667 15.9981 7.46667H16.0008Z" fill="#FAF4EA"/>
<path fill-rule="evenodd" clip-rule="evenodd" d="M15.2351 9.00494C15.4623 9.00461 15.7159 9.00494 16.0007 9.00494C18.2791 9.00494 18.5491 9.01314 19.4489 9.05401C20.2809 9.09207 20.7325 9.23107 21.0333 9.34787C21.4315 9.50254 21.7154 9.68741 22.0139 9.98607C22.3125 10.2847 22.4975 10.5692 22.6525 10.9675C22.7693 11.2679 22.9085 11.7195 22.9463 12.5515C22.9872 13.451 22.9961 13.7213 22.9961 15.9986C22.9961 18.2759 22.9872 18.5462 22.9463 19.4457C22.9083 20.2777 22.7693 20.7293 22.6525 21.0297C22.4978 21.428 22.3125 21.7115 22.0139 22.0101C21.7152 22.3087 21.4317 22.4936 21.0333 22.6483C20.7328 22.7656 20.2809 22.9043 19.4489 22.9423C18.5493 22.9832 18.2791 22.9921 16.0007 22.9921C13.7221 22.9921 13.452 22.9832 12.5525 22.9423C11.7205 22.9039 11.2689 22.7649 10.9679 22.6481C10.5697 22.4934 10.2852 22.3085 9.98653 22.0099C9.68787 21.7112 9.503 21.4275 9.348 21.0291C9.2312 20.7286 9.092 20.2771 9.05413 19.4451C9.0132 18.5455 9.00507 18.2753 9.00507 15.9965C9.00507 13.7177 9.0132 13.4489 9.05413 12.5493C9.09213 11.7173 9.2312 11.2657 9.348 10.9649C9.50267 10.5667 9.68787 10.2823 9.98653 9.98361C10.2852 9.68494 10.5697 9.50007 10.9679 9.34501C11.2687 9.22767 11.7205 9.08901 12.5525 9.05081C13.3397 9.01527 13.6447 9.00461 15.2351 9.00281V9.00494ZM20.5557 10.4218C19.9904 10.4218 19.5317 10.88 19.5317 11.4455C19.5317 12.0108 19.9904 12.4695 20.5557 12.4695C21.1211 12.4695 21.5797 12.0108 21.5797 11.4455C21.5797 10.8801 21.1211 10.4218 20.5557 10.4218ZM16.0007 11.6183C13.5805 11.6183 11.6184 13.5805 11.6184 16.0005C11.6184 18.4207 13.5805 20.3819 16.0007 20.3819C18.4208 20.3819 20.3822 18.4207 20.3822 16.0005C20.3822 13.5805 18.4208 11.6183 16.0007 11.6183Z" fill="#FAF4EA"/>
<path fill-rule="evenodd" clip-rule="evenodd" d="M16.0007 13.1553C17.5716 13.1553 18.8452 14.4287 18.8452 15.9997C18.8452 17.5706 17.5716 18.8442 16.0007 18.8442C14.4296 18.8442 13.1562 17.5706 13.1562 15.9997C13.1562 14.4287 14.4296 13.1553 16.0007 13.1553Z" fill="#FAF4EA"/>
</g>
<defs>
<clipPath id="clip0_796_166">
<rect width="32" height="32" fill="white"/>
</clipPath>
</defs>
</svg>
